%
M48
M72
T01C0.0276
T02C0.0320
T03C0.0354
T04C0.0394
T05C0.0400
T06C0.0440
%
T01
X8100Y11252
X9100Y11252
X17600Y11359
X17600Y12146
T02
X3600Y11252
X3600Y12252
X3600Y13252
X3600Y14252
X3600Y15252
X3600Y16252
X3600Y17252
X6600Y17252
X6600Y16252
X6600Y15252
X6600Y14252
X6600Y13252
X6600Y12252
X6600Y11252
X8600Y14252
X8600Y15252
X13600Y14752
X13600Y16752
X17100Y18002
X17100Y13502
T03
X12600Y13752
X12600Y16752
X11100Y16752
X8100Y16752
T04
X9600Y13752
X11600Y13752
X10600Y11752
T05
X11600Y18752
X11600Y19752
X11600Y20752
X11600Y23752
X11600Y24752
X12100Y28252
X13100Y28252
X14550Y28252
X15650Y28252
X18600Y24752
X18600Y23752
X20800Y23752
X20800Y22752
X20800Y24752
X20800Y25752
X20800Y26752
X20800Y27752
X20800Y20752
X20800Y19752
X20800Y18752
X20800Y17752
X20800Y16752
X20800Y15752
X18600Y18752
X18600Y19752
X18600Y20752
X10600Y28252
X9600Y28252
X8100Y28252
X7100Y28252
X1800Y27752
X1800Y26752
X1800Y25752
X1800Y24752
X1800Y23752
X1800Y22752
X1800Y21752
X1800Y20752
X1800Y19252
X1800Y18252
X1800Y17252
X1800Y16252
X1800Y15252
X1800Y14252
X1800Y13252
X1800Y12252
T06
X3600Y18752
X3600Y19752
X3600Y20752
X3600Y21752
X3600Y22752
X3600Y23752
X3600Y24752
X3600Y25752
X9600Y25752
X9600Y24752
X9600Y23752
X9600Y22752
X9600Y21752
X9600Y20752
X9600Y19752
X9600Y18752
M30
