G75*
G70*
%OFA0B0*%
%FSLAX24Y24*%
%IPPOS*%
%LPD*%
%AMOC8*
5,1,8,0,0,1.08239X$1,22.5*
%
%ADD10C,0.0000*%
%ADD11C,0.0060*%
%ADD12C,0.0100*%
%ADD13C,0.0080*%
%ADD14C,0.0050*%
D10*
X000100Y010252D02*
X000100Y029748D01*
X022970Y029748D01*
X022970Y010252D01*
X000100Y010252D01*
D11*
X004561Y018582D02*
X004561Y018809D01*
X004675Y018923D01*
X004788Y018809D01*
X004788Y018582D01*
X004930Y018582D02*
X004930Y018923D01*
X005043Y018809D01*
X005157Y018923D01*
X005157Y018582D01*
X005298Y018582D02*
X005298Y018923D01*
X005525Y018923D02*
X005525Y018582D01*
X005412Y018696D01*
X005298Y018582D01*
X005666Y018753D02*
X005666Y018866D01*
X005723Y018923D01*
X005893Y018923D01*
X005893Y018582D01*
X005893Y018696D02*
X005723Y018696D01*
X005666Y018753D01*
X004788Y018753D02*
X004561Y018753D01*
X004561Y019582D02*
X004788Y019582D01*
X004561Y019809D01*
X004561Y019866D01*
X004618Y019923D01*
X004732Y019923D01*
X004788Y019866D01*
X004930Y019923D02*
X004930Y019582D01*
X005157Y019923D01*
X005157Y019582D01*
X005289Y019582D02*
X005402Y019582D01*
X005345Y019582D02*
X005345Y019923D01*
X005289Y019923D02*
X005402Y019923D01*
X005544Y019809D02*
X005544Y019582D01*
X005544Y019753D02*
X005770Y019753D01*
X005770Y019809D02*
X005657Y019923D01*
X005544Y019809D01*
X005770Y019809D02*
X005770Y019582D01*
X005770Y020582D02*
X005770Y020809D01*
X005657Y020923D01*
X005544Y020809D01*
X005544Y020582D01*
X005402Y020582D02*
X005289Y020582D01*
X005345Y020582D02*
X005345Y020923D01*
X005289Y020923D02*
X005402Y020923D01*
X005544Y020753D02*
X005770Y020753D01*
X005157Y020582D02*
X005157Y020923D01*
X004930Y020582D01*
X004930Y020923D01*
X004788Y020809D02*
X004675Y020923D01*
X004675Y020582D01*
X004788Y020582D02*
X004561Y020582D01*
X004675Y021582D02*
X004675Y021753D01*
X004561Y021866D01*
X004561Y021923D01*
X004675Y021753D02*
X004788Y021866D01*
X004788Y021923D01*
X004930Y021866D02*
X004930Y021809D01*
X004986Y021753D01*
X005157Y021753D01*
X005157Y021923D02*
X005157Y021582D01*
X004986Y021582D01*
X004930Y021639D01*
X004930Y021696D01*
X004986Y021753D01*
X004930Y021866D02*
X004986Y021923D01*
X005157Y021923D01*
X005298Y021923D02*
X005525Y021923D01*
X005412Y021923D02*
X005412Y021582D01*
X005666Y021639D02*
X005723Y021582D01*
X005837Y021582D01*
X005893Y021639D01*
X005837Y021753D02*
X005723Y021753D01*
X005666Y021696D01*
X005666Y021639D01*
X005837Y021753D02*
X005893Y021809D01*
X005893Y021866D01*
X005837Y021923D01*
X005723Y021923D01*
X005666Y021866D01*
X005600Y022582D02*
X005770Y022582D01*
X005770Y022923D01*
X005600Y022923D01*
X005544Y022866D01*
X005544Y022809D01*
X005600Y022753D01*
X005770Y022753D01*
X005600Y022753D02*
X005544Y022696D01*
X005544Y022639D01*
X005600Y022582D01*
X005402Y022582D02*
X005289Y022582D01*
X005345Y022582D02*
X005345Y022923D01*
X005289Y022923D02*
X005402Y022923D01*
X005157Y022923D02*
X004930Y022582D01*
X004930Y022923D01*
X004788Y022809D02*
X004675Y022923D01*
X004675Y022582D01*
X004788Y022582D02*
X004561Y022582D01*
X005157Y022582D02*
X005157Y022923D01*
X005157Y023582D02*
X005157Y023923D01*
X004930Y023582D01*
X004930Y023923D01*
X004788Y023866D02*
X004732Y023923D01*
X004618Y023923D01*
X004561Y023866D01*
X004561Y023809D01*
X004788Y023582D01*
X004561Y023582D01*
X005289Y023582D02*
X005402Y023582D01*
X005345Y023582D02*
X005345Y023923D01*
X005289Y023923D02*
X005402Y023923D01*
X005544Y023866D02*
X005544Y023809D01*
X005600Y023753D01*
X005770Y023753D01*
X005770Y023923D02*
X005770Y023582D01*
X005600Y023582D01*
X005544Y023639D01*
X005544Y023696D01*
X005600Y023753D01*
X005544Y023866D02*
X005600Y023923D01*
X005770Y023923D01*
X005893Y024582D02*
X005893Y024923D01*
X005723Y024923D01*
X005666Y024866D01*
X005666Y024753D01*
X005723Y024696D01*
X005893Y024696D01*
X005525Y024582D02*
X005525Y024923D01*
X005298Y024923D02*
X005298Y024582D01*
X005412Y024696D01*
X005525Y024582D01*
X005157Y024582D02*
X005157Y024923D01*
X005043Y024809D01*
X004930Y024923D01*
X004930Y024582D01*
X004788Y024582D02*
X004618Y024582D01*
X004561Y024639D01*
X004561Y024696D01*
X004618Y024753D01*
X004788Y024753D01*
X004788Y024923D02*
X004788Y024582D01*
X004618Y024753D02*
X004561Y024809D01*
X004561Y024866D01*
X004618Y024923D01*
X004788Y024923D01*
X004788Y025582D02*
X004618Y025582D01*
X004561Y025639D01*
X004561Y025866D01*
X004618Y025923D01*
X004788Y025923D01*
X004788Y025582D01*
X004930Y025582D02*
X004930Y025923D01*
X005157Y025923D02*
X004930Y025582D01*
X005157Y025582D02*
X005157Y025923D01*
X005298Y025866D02*
X005355Y025923D01*
X005468Y025923D01*
X005525Y025866D01*
X005525Y025639D01*
X005468Y025582D01*
X005355Y025582D01*
X005298Y025639D01*
X005298Y025753D01*
X005412Y025753D01*
X007920Y024923D02*
X007920Y024582D01*
X008033Y024582D02*
X007807Y024582D01*
X008033Y024809D02*
X007920Y024923D01*
X008175Y024866D02*
X008402Y024639D01*
X008345Y024582D01*
X008232Y024582D01*
X008175Y024639D01*
X008175Y024866D01*
X008232Y024923D01*
X008345Y024923D01*
X008402Y024866D01*
X008402Y024639D01*
X008543Y024639D02*
X008600Y024582D01*
X008770Y024582D01*
X008770Y024923D01*
X008600Y024923D01*
X008543Y024866D01*
X008543Y024809D01*
X008600Y024753D01*
X008770Y024753D01*
X008600Y024753D02*
X008543Y024696D01*
X008543Y024639D01*
X008600Y023923D02*
X008543Y023866D01*
X008543Y023809D01*
X008600Y023753D01*
X008770Y023753D01*
X008770Y023923D02*
X008770Y023582D01*
X008600Y023582D01*
X008543Y023639D01*
X008543Y023696D01*
X008600Y023753D01*
X008600Y023923D02*
X008770Y023923D01*
X008402Y023866D02*
X008345Y023923D01*
X008232Y023923D01*
X008175Y023866D01*
X008402Y023639D01*
X008345Y023582D01*
X008232Y023582D01*
X008175Y023639D01*
X008175Y023866D01*
X008033Y023866D02*
X007977Y023923D01*
X007863Y023923D01*
X007807Y023866D01*
X007807Y023809D01*
X008033Y023582D01*
X007807Y023582D01*
X008402Y023639D02*
X008402Y023866D01*
X008345Y022923D02*
X008232Y022923D01*
X008175Y022866D01*
X008402Y022639D01*
X008345Y022582D01*
X008232Y022582D01*
X008175Y022639D01*
X008175Y022866D01*
X008033Y022866D02*
X007977Y022923D01*
X007863Y022923D01*
X007807Y022866D01*
X007807Y022809D01*
X008033Y022582D01*
X007807Y022582D01*
X008402Y022639D02*
X008402Y022866D01*
X008345Y022923D01*
X008543Y022809D02*
X008543Y022582D01*
X008543Y022753D02*
X008770Y022753D01*
X008770Y022809D02*
X008657Y022923D01*
X008543Y022809D01*
X008770Y022809D02*
X008770Y022582D01*
X008657Y021923D02*
X008543Y021809D01*
X008543Y021582D01*
X008402Y021639D02*
X008175Y021866D01*
X008175Y021639D01*
X008232Y021582D01*
X008345Y021582D01*
X008402Y021639D01*
X008402Y021866D01*
X008345Y021923D01*
X008232Y021923D01*
X008175Y021866D01*
X008033Y021809D02*
X007920Y021923D01*
X007920Y021582D01*
X008033Y021582D02*
X007807Y021582D01*
X008543Y021753D02*
X008770Y021753D01*
X008770Y021809D02*
X008657Y021923D01*
X008770Y021809D02*
X008770Y021582D01*
X008713Y020923D02*
X008770Y020866D01*
X008770Y020639D01*
X008713Y020582D01*
X008600Y020582D01*
X008543Y020639D01*
X008543Y020753D01*
X008657Y020753D01*
X008543Y020866D02*
X008600Y020923D01*
X008713Y020923D01*
X008402Y020923D02*
X008175Y020582D01*
X008175Y020923D01*
X008033Y020923D02*
X008033Y020582D01*
X007863Y020582D01*
X007807Y020639D01*
X007807Y020866D01*
X007863Y020923D01*
X008033Y020923D01*
X008402Y020923D02*
X008402Y020582D01*
X008345Y019923D02*
X008402Y019866D01*
X008402Y019639D01*
X008345Y019582D01*
X008232Y019582D01*
X008175Y019639D01*
X008033Y019639D02*
X008033Y019866D01*
X007977Y019923D01*
X007863Y019923D01*
X007807Y019866D01*
X007807Y019639D02*
X007863Y019582D01*
X007977Y019582D01*
X008033Y019639D01*
X008175Y019866D02*
X008232Y019923D01*
X008345Y019923D01*
X008543Y019923D02*
X008543Y019696D01*
X008657Y019582D01*
X008770Y019696D01*
X008770Y019923D01*
X008770Y018923D02*
X008770Y018696D01*
X008657Y018582D01*
X008543Y018696D01*
X008543Y018923D01*
X008402Y018923D02*
X008288Y018809D01*
X008175Y018923D01*
X008175Y018582D01*
X008402Y018582D02*
X008402Y018923D01*
D12*
X012508Y012213D02*
X012695Y012119D01*
X012882Y011933D01*
X012601Y011933D01*
X012508Y011839D01*
X012508Y011746D01*
X012601Y011652D01*
X012788Y011652D01*
X012882Y011746D01*
X012882Y011933D01*
X013116Y011652D02*
X013489Y011652D01*
X013303Y011652D02*
X013303Y012213D01*
X013489Y012026D01*
X013723Y011933D02*
X014097Y011933D01*
X013817Y012213D01*
X013817Y011652D01*
X014331Y011746D02*
X014425Y011652D01*
X014611Y011652D01*
X014705Y011746D01*
X014705Y011933D02*
X014518Y012026D01*
X014425Y012026D01*
X014331Y011933D01*
X014331Y011746D01*
X014705Y011933D02*
X014705Y012213D01*
X014331Y012213D01*
X014939Y012213D02*
X015313Y012213D01*
X015313Y011933D01*
X015126Y012026D01*
X015032Y012026D01*
X014939Y011933D01*
X014939Y011746D01*
X015032Y011652D01*
X015219Y011652D01*
X015313Y011746D01*
X017287Y018752D02*
X018037Y018752D01*
X017287Y018752D02*
X017287Y019190D01*
X017537Y019315D01*
X017037Y019502D01*
X017537Y019690D01*
X017037Y019877D01*
X017537Y020065D01*
X017037Y020252D01*
X017287Y020377D01*
X017287Y020752D01*
X018037Y020752D01*
X017850Y019877D02*
X017662Y019752D01*
X017850Y019627D01*
X017850Y019877D01*
X018037Y019752D02*
X017662Y019752D01*
D13*
X018100Y019502D02*
X018350Y019252D01*
X018100Y019002D01*
X018100Y018502D01*
X018350Y018252D01*
X018850Y018252D01*
X019100Y018502D01*
X019100Y019002D01*
X018850Y019252D01*
X019100Y019502D01*
X019100Y020002D01*
X018850Y020252D01*
X019100Y020502D01*
X019100Y021002D01*
X018850Y021252D01*
X018350Y021252D01*
X018100Y021002D01*
X018100Y020502D01*
X018350Y020252D01*
X018100Y020002D01*
X018100Y019502D01*
X017795Y019205D02*
X017795Y018925D01*
X017935Y019065D02*
X017655Y019065D01*
X017655Y020503D02*
X017935Y020503D01*
X018350Y023252D02*
X018850Y023252D01*
X019100Y023502D01*
X019100Y024002D01*
X018850Y024252D01*
X019100Y024502D01*
X019100Y025002D01*
X018850Y025252D01*
X018350Y025252D01*
X018100Y025002D01*
X018100Y024502D01*
X018350Y024252D01*
X018100Y024002D01*
X018100Y023502D01*
X018350Y023252D01*
X012100Y023502D02*
X012100Y024002D01*
X011850Y024252D01*
X012100Y024502D01*
X012100Y025002D01*
X011850Y025252D01*
X011350Y025252D01*
X011100Y025002D01*
X011100Y024502D01*
X011350Y024252D01*
X011100Y024002D01*
X011100Y023502D01*
X011350Y023252D01*
X011850Y023252D01*
X012100Y023502D01*
X011850Y021252D02*
X011350Y021252D01*
X011100Y021002D01*
X011100Y020502D01*
X011350Y020252D01*
X011100Y020002D01*
X011100Y019502D01*
X011350Y019252D01*
X011100Y019002D01*
X011100Y018502D01*
X011350Y018252D01*
X011850Y018252D01*
X012100Y018502D01*
X012100Y019002D01*
X011850Y019252D01*
X012100Y019502D01*
X012100Y020002D01*
X011850Y020252D01*
X012100Y020502D01*
X012100Y021002D01*
X011850Y021252D01*
D14*
X012720Y019468D02*
X012420Y019168D01*
X012345Y019168D01*
X012570Y019008D02*
X012495Y018933D01*
X012495Y018708D01*
X012345Y018708D02*
X012795Y018708D01*
X012795Y018933D01*
X012720Y019008D01*
X012570Y019008D01*
X012795Y019168D02*
X012795Y019468D01*
X012720Y019468D01*
X012795Y018548D02*
X012795Y018397D01*
X012795Y018473D02*
X012420Y018473D01*
X012345Y018397D01*
X012345Y018322D01*
X012420Y018247D01*
X019345Y018322D02*
X019345Y018397D01*
X019420Y018473D01*
X019795Y018473D01*
X019795Y018548D02*
X019795Y018397D01*
X019795Y018708D02*
X019345Y018708D01*
X019495Y018708D02*
X019495Y018933D01*
X019570Y019008D01*
X019720Y019008D01*
X019795Y018933D01*
X019795Y018708D01*
X019345Y018322D02*
X019420Y018247D01*
X019420Y019168D02*
X019495Y019168D01*
X019570Y019243D01*
X019570Y019393D01*
X019495Y019468D01*
X019420Y019468D01*
X019345Y019393D01*
X019345Y019243D01*
X019420Y019168D01*
X019570Y019243D02*
X019645Y019168D01*
X019720Y019168D01*
X019795Y019243D01*
X019795Y019393D01*
X019720Y019468D01*
X019645Y019468D01*
X019570Y019393D01*
X017855Y024076D02*
X017855Y024226D01*
X017855Y024151D02*
X017480Y024151D01*
X017405Y024076D01*
X017405Y024001D01*
X017480Y023926D01*
X017405Y024387D02*
X017855Y024387D01*
X017855Y024612D01*
X017780Y024687D01*
X017630Y024687D01*
X017555Y024612D01*
X017555Y024387D01*
X017480Y024847D02*
X017405Y024922D01*
X017405Y025072D01*
X017480Y025147D01*
X017630Y025147D01*
X017705Y025072D01*
X017705Y024997D01*
X017630Y024847D01*
X017855Y024847D01*
X017855Y025147D01*
X010855Y025147D02*
X010780Y024997D01*
X010630Y024847D01*
X010630Y025072D01*
X010555Y025147D01*
X010480Y025147D01*
X010405Y025072D01*
X010405Y024922D01*
X010480Y024847D01*
X010630Y024847D01*
X010630Y024687D02*
X010555Y024612D01*
X010555Y024387D01*
X010405Y024387D02*
X010855Y024387D01*
X010855Y024612D01*
X010780Y024687D01*
X010630Y024687D01*
X010855Y024226D02*
X010855Y024076D01*
X010855Y024151D02*
X010480Y024151D01*
X010405Y024076D01*
X010405Y024001D01*
X010480Y023926D01*
M02*
