G75*
G70*
%OFA0B0*%
%FSLAX24Y24*%
%IPPOS*%
%LPD*%
%AMOC8*
5,1,8,0,0,1.08239X$1,22.5*
%
%ADD10C,0.0000*%
%ADD11C,0.0080*%
%ADD12C,0.0060*%
%ADD13C,0.0100*%
%ADD14C,0.0010*%
%ADD15C,0.0050*%
%ADD16C,0.0320*%
%ADD17C,0.0240*%
%ADD18C,0.0120*%
%ADD19C,0.0040*%
D10*
X000100Y010252D02*
X000100Y029748D01*
X022970Y029748D01*
X022970Y010252D01*
X000100Y010252D01*
D11*
X007703Y012463D02*
X007983Y012463D01*
X007843Y012463D02*
X007843Y012042D01*
X008163Y011972D02*
X008443Y011972D01*
X008623Y012182D02*
X008623Y012463D01*
X008623Y012182D02*
X008763Y012042D01*
X008904Y012182D01*
X008904Y012463D01*
X009084Y012393D02*
X009084Y012112D01*
X009154Y012042D01*
X009294Y012042D01*
X009364Y012112D01*
X009364Y012393D01*
X009294Y012463D01*
X009154Y012463D01*
X009084Y012393D01*
X009544Y012463D02*
X009544Y012042D01*
X009824Y012042D01*
X008600Y011502D02*
X008600Y011002D01*
X012300Y014252D02*
X012300Y016252D01*
X012600Y016252D01*
X012600Y016352D01*
X012600Y016252D02*
X012900Y016252D01*
X012900Y014252D01*
X012600Y014252D01*
X012600Y014152D01*
X012600Y014252D02*
X012300Y014252D01*
X011364Y014542D02*
X011084Y014542D01*
X011084Y014963D01*
X011364Y014963D01*
X011224Y014753D02*
X011084Y014753D01*
X010904Y014963D02*
X010904Y014542D01*
X010623Y014963D01*
X010623Y014542D01*
X010443Y014612D02*
X010443Y014893D01*
X010373Y014963D01*
X010233Y014963D01*
X010163Y014893D01*
X010163Y014612D01*
X010233Y014542D01*
X010373Y014542D01*
X010443Y014612D01*
X009983Y014963D02*
X009703Y014963D01*
X009843Y014963D02*
X009843Y014542D01*
X010600Y016452D02*
X008600Y016452D01*
X008600Y016752D01*
X008500Y016752D01*
X008600Y016752D02*
X008600Y017052D01*
X010600Y017052D01*
X010600Y016752D01*
X010700Y016752D01*
X010600Y016752D02*
X010600Y016452D01*
X009850Y018252D02*
X009350Y018252D01*
X012423Y018612D02*
X012493Y018542D01*
X012634Y018542D01*
X012704Y018612D01*
X012704Y018682D01*
X012634Y018753D01*
X012493Y018753D01*
X012423Y018823D01*
X012423Y018893D01*
X012493Y018963D01*
X012634Y018963D01*
X012704Y018893D01*
X012884Y018963D02*
X012884Y018542D01*
X013094Y018542D01*
X013164Y018612D01*
X013164Y018893D01*
X013094Y018963D01*
X012884Y018963D01*
X013344Y018963D02*
X013344Y018542D01*
X013624Y018542D02*
X013344Y018963D01*
X013624Y018963D02*
X013624Y018542D01*
X013805Y018612D02*
X014085Y018893D01*
X013945Y018893D02*
X013945Y018612D01*
X014085Y018612D02*
X013805Y018893D01*
X013805Y018753D02*
X014085Y018753D01*
X013585Y019542D02*
X013445Y019682D01*
X013515Y019682D02*
X013305Y019682D01*
X013305Y019542D02*
X013305Y019963D01*
X013515Y019963D01*
X013585Y019893D01*
X013585Y019753D01*
X013515Y019682D01*
X013124Y019542D02*
X013124Y019963D01*
X012844Y019963D02*
X012844Y019542D01*
X012984Y019682D01*
X013124Y019542D01*
X012664Y019753D02*
X012594Y019682D01*
X012384Y019682D01*
X012384Y019542D02*
X012384Y019963D01*
X012594Y019963D01*
X012664Y019893D01*
X012664Y019753D01*
X012594Y020542D02*
X012664Y020612D01*
X012664Y020753D01*
X012524Y020753D01*
X012664Y020893D02*
X012594Y020963D01*
X012454Y020963D01*
X012384Y020893D01*
X012384Y020612D01*
X012454Y020542D01*
X012594Y020542D01*
X012844Y020542D02*
X012844Y020963D01*
X013124Y020542D01*
X013124Y020963D01*
X013305Y020963D02*
X013515Y020963D01*
X013585Y020893D01*
X013585Y020612D01*
X013515Y020542D01*
X013305Y020542D01*
X013305Y020963D01*
X013373Y023542D02*
X013443Y023612D01*
X013443Y023963D01*
X013623Y023963D02*
X013904Y023963D01*
X013763Y023963D02*
X013763Y023542D01*
X014084Y023753D02*
X014364Y023753D01*
X014224Y024612D02*
X014224Y024893D01*
X014084Y024753D02*
X014364Y024753D01*
X013904Y024963D02*
X013623Y024963D01*
X013763Y024963D02*
X013763Y024542D01*
X013443Y024612D02*
X013443Y024963D01*
X013163Y024963D02*
X013163Y024612D01*
X013233Y024542D01*
X013373Y024542D01*
X013443Y024612D01*
X012983Y024612D02*
X012983Y024893D01*
X012913Y024963D01*
X012773Y024963D01*
X012703Y024893D01*
X012703Y024612D01*
X012773Y024542D01*
X012913Y024542D01*
X012983Y024612D01*
X012913Y023963D02*
X012983Y023893D01*
X012983Y023612D01*
X012913Y023542D01*
X012773Y023542D01*
X012703Y023612D01*
X012703Y023893D01*
X012773Y023963D01*
X012913Y023963D01*
X013163Y023963D02*
X013163Y023612D01*
X013233Y023542D01*
X013373Y023542D01*
X016890Y023542D02*
X017030Y023542D01*
X016960Y023542D02*
X016960Y023963D01*
X016890Y023963D02*
X017030Y023963D01*
X017197Y023963D02*
X017477Y023542D01*
X017477Y023963D01*
X017657Y023753D02*
X017938Y023753D01*
X018100Y023885D02*
X018100Y023605D01*
X017197Y023542D02*
X017197Y023963D01*
X017197Y024542D02*
X017197Y024963D01*
X017477Y024542D01*
X017477Y024963D01*
X017657Y024753D02*
X017938Y024753D01*
X017797Y024893D02*
X017797Y024612D01*
X017030Y024542D02*
X016890Y024542D01*
X016960Y024542D02*
X016960Y024963D01*
X016890Y024963D02*
X017030Y024963D01*
X015864Y026542D02*
X015654Y026753D01*
X015584Y026682D02*
X015864Y026963D01*
X015584Y026963D02*
X015584Y026542D01*
X015404Y026612D02*
X015333Y026542D01*
X015193Y026542D01*
X015123Y026612D01*
X015123Y026893D01*
X015193Y026963D01*
X015333Y026963D01*
X015404Y026893D01*
X014943Y026963D02*
X014803Y026963D01*
X014873Y026963D02*
X014873Y026612D01*
X014803Y026542D01*
X014733Y026542D01*
X014663Y026612D01*
X014483Y026753D02*
X014203Y026753D01*
X014343Y026893D02*
X014343Y026612D01*
X013364Y026542D02*
X013154Y026753D01*
X013084Y026682D02*
X013364Y026963D01*
X013084Y026963D02*
X013084Y026542D01*
X012904Y026753D02*
X012833Y026682D01*
X012623Y026682D01*
X012623Y026542D02*
X012623Y026963D01*
X012833Y026963D01*
X012904Y026893D01*
X012904Y026753D01*
X012443Y026682D02*
X012443Y026612D01*
X012373Y026542D01*
X012233Y026542D01*
X012163Y026612D01*
X012233Y026753D02*
X012373Y026753D01*
X012443Y026682D01*
X012443Y026893D02*
X012373Y026963D01*
X012233Y026963D01*
X012163Y026893D01*
X012163Y026823D01*
X012233Y026753D01*
X011983Y026753D02*
X011703Y026753D01*
X011843Y026893D02*
X011843Y026612D01*
X010904Y026542D02*
X010904Y026823D01*
X010763Y026963D01*
X010623Y026823D01*
X010623Y026542D01*
X010443Y026472D02*
X010163Y026472D01*
X009983Y026542D02*
X009983Y026963D01*
X009843Y026823D01*
X009703Y026963D01*
X009703Y026542D01*
X009850Y026252D02*
X009350Y026252D01*
X008404Y026612D02*
X008333Y026542D01*
X008123Y026542D01*
X008123Y026963D01*
X008333Y026963D01*
X008404Y026893D01*
X008404Y026823D01*
X008333Y026753D01*
X008123Y026753D01*
X008333Y026753D02*
X008404Y026682D01*
X008404Y026612D01*
X007943Y026472D02*
X007663Y026472D01*
X007483Y026542D02*
X007483Y026963D01*
X007343Y026823D01*
X007203Y026963D01*
X007203Y026542D01*
X003850Y026252D02*
X003350Y026252D01*
X010623Y026753D02*
X010904Y026753D01*
X014100Y027862D02*
X014210Y027752D01*
X014100Y027862D02*
X014100Y028252D01*
X014100Y028642D01*
X014210Y028752D01*
X014200Y028252D02*
X014100Y028252D01*
X014950Y028252D02*
X015250Y028252D01*
X016000Y028252D02*
X016100Y028252D01*
X016100Y028642D01*
X015990Y028752D01*
X016100Y028252D02*
X016100Y027862D01*
X015990Y027752D01*
X016810Y020431D02*
X016810Y020151D01*
X016390Y020151D01*
X016460Y019971D02*
X016390Y019900D01*
X016390Y019760D01*
X016460Y019690D01*
X016740Y019690D01*
X016810Y019760D01*
X016810Y019900D01*
X016740Y019971D01*
X016460Y019971D01*
X016390Y019510D02*
X016670Y019510D01*
X016810Y019370D01*
X016670Y019230D01*
X016390Y019230D01*
X016891Y012933D02*
X019962Y012933D01*
X019962Y010571D01*
X016891Y010571D01*
X016891Y010965D01*
X017600Y010965D01*
X017600Y012540D02*
X016891Y012540D01*
X016891Y012933D01*
X020702Y012594D02*
X020702Y012384D01*
X021123Y012384D01*
X020982Y012384D02*
X020982Y012594D01*
X020912Y012664D01*
X020772Y012664D01*
X020702Y012594D01*
X020982Y012524D02*
X021123Y012664D01*
X021123Y012204D02*
X020702Y012204D01*
X020702Y011924D02*
X021123Y011924D01*
X020982Y012064D01*
X021123Y012204D01*
X021052Y011743D02*
X020772Y011743D01*
X020702Y011673D01*
X020702Y011533D01*
X020772Y011463D01*
X021052Y011463D01*
X021123Y011533D01*
X021123Y011673D01*
X021052Y011743D01*
X020912Y011283D02*
X020772Y011283D01*
X020702Y011213D01*
X020702Y011003D01*
X021123Y011003D01*
X020982Y011003D02*
X020982Y011213D01*
X020912Y011283D01*
X020912Y010823D02*
X020912Y010542D01*
X020772Y010682D02*
X021052Y010682D01*
X003850Y018252D02*
X003350Y018252D01*
D12*
X003950Y017752D02*
X004700Y017752D01*
X004702Y017713D01*
X004708Y017674D01*
X004717Y017636D01*
X004730Y017599D01*
X004747Y017563D01*
X004767Y017530D01*
X004791Y017498D01*
X004817Y017469D01*
X004846Y017443D01*
X004878Y017419D01*
X004911Y017399D01*
X004947Y017382D01*
X004984Y017369D01*
X005022Y017360D01*
X005061Y017354D01*
X005100Y017352D01*
X005139Y017354D01*
X005178Y017360D01*
X005216Y017369D01*
X005253Y017382D01*
X005289Y017399D01*
X005322Y017419D01*
X005354Y017443D01*
X005383Y017469D01*
X005409Y017498D01*
X005433Y017530D01*
X005453Y017563D01*
X005470Y017599D01*
X005483Y017636D01*
X005492Y017674D01*
X005498Y017713D01*
X005500Y017752D01*
X006250Y017752D01*
X006250Y010752D01*
X003950Y010752D01*
X003950Y017752D01*
X009325Y016759D02*
X009438Y016873D01*
X009438Y016532D01*
X009325Y016532D02*
X009552Y016532D01*
X009693Y016703D02*
X009864Y016873D01*
X009864Y016532D01*
X009920Y016703D02*
X009693Y016703D01*
X010062Y016703D02*
X010175Y016759D01*
X010232Y016759D01*
X010289Y016703D01*
X010289Y016589D01*
X010232Y016532D01*
X010118Y016532D01*
X010062Y016589D01*
X010062Y016703D02*
X010062Y016873D01*
X010289Y016873D01*
X012480Y015941D02*
X012593Y015827D01*
X012480Y015714D01*
X012820Y015714D01*
X012820Y015573D02*
X012820Y015346D01*
X012820Y015459D02*
X012480Y015459D01*
X012593Y015346D01*
X012480Y015941D02*
X012820Y015941D01*
X014350Y017752D02*
X016850Y017752D01*
X017350Y017752D02*
X019350Y017752D01*
X019380Y017750D01*
X019410Y017745D01*
X019439Y017736D01*
X019466Y017723D01*
X019492Y017708D01*
X019516Y017689D01*
X019537Y017668D01*
X019556Y017644D01*
X019571Y017618D01*
X019584Y017591D01*
X019593Y017562D01*
X019598Y017532D01*
X019600Y017502D01*
X019600Y014002D01*
X019598Y013972D01*
X019593Y013942D01*
X019584Y013913D01*
X019571Y013886D01*
X019556Y013860D01*
X019537Y013836D01*
X019516Y013815D01*
X019492Y013796D01*
X019466Y013781D01*
X019439Y013768D01*
X019410Y013759D01*
X019380Y013754D01*
X019350Y013752D01*
X017400Y013752D01*
X016800Y013752D02*
X014350Y013752D01*
X014041Y011673D02*
X013927Y011673D01*
X013871Y011616D01*
X013871Y011559D01*
X013927Y011503D01*
X014041Y011503D01*
X014098Y011446D01*
X014098Y011389D01*
X014041Y011332D01*
X013927Y011332D01*
X013871Y011389D01*
X013739Y011332D02*
X013625Y011332D01*
X013682Y011332D02*
X013682Y011673D01*
X013625Y011673D01*
X013484Y011503D02*
X013484Y011332D01*
X013314Y011332D01*
X013257Y011389D01*
X013314Y011446D01*
X013484Y011446D01*
X013484Y011503D02*
X013427Y011559D01*
X013314Y011559D01*
X013115Y011559D02*
X012945Y011559D01*
X012889Y011503D01*
X012889Y011389D01*
X012945Y011332D01*
X013115Y011332D01*
X012756Y011332D02*
X012643Y011332D01*
X012700Y011332D02*
X012700Y011559D01*
X012643Y011559D01*
X012700Y011673D02*
X012700Y011729D01*
X012511Y011559D02*
X012397Y011559D01*
X012454Y011616D02*
X012454Y011389D01*
X012511Y011332D01*
X012256Y011332D02*
X012086Y011332D01*
X012029Y011389D01*
X012029Y011503D01*
X012086Y011559D01*
X012256Y011559D01*
X011888Y011503D02*
X011888Y011332D01*
X011718Y011332D01*
X011661Y011389D01*
X011718Y011446D01*
X011888Y011446D01*
X011888Y011503D02*
X011831Y011559D01*
X011718Y011559D01*
X011519Y011673D02*
X011293Y011673D01*
X011406Y011673D02*
X011406Y011332D01*
X014041Y011673D02*
X014098Y011616D01*
X014239Y011559D02*
X014409Y011559D01*
X014466Y011503D01*
X014466Y011389D01*
X014409Y011332D01*
X014239Y011332D01*
X014239Y011219D02*
X014239Y011559D01*
X014607Y011389D02*
X014664Y011332D01*
X014834Y011332D01*
X014834Y011503D01*
X014777Y011559D01*
X014664Y011559D01*
X014664Y011446D02*
X014834Y011446D01*
X014976Y011503D02*
X014976Y011389D01*
X015032Y011332D01*
X015203Y011332D01*
X015344Y011389D02*
X015401Y011332D01*
X015514Y011332D01*
X015571Y011446D02*
X015344Y011446D01*
X015344Y011503D02*
X015401Y011559D01*
X015514Y011559D01*
X015571Y011503D01*
X015571Y011446D01*
X015712Y011389D02*
X015769Y011389D01*
X015769Y011332D01*
X015712Y011332D01*
X015712Y011389D01*
X015896Y011389D02*
X015953Y011332D01*
X016067Y011332D01*
X016123Y011389D01*
X016123Y011503D01*
X016067Y011559D01*
X015953Y011559D01*
X015896Y011503D01*
X015896Y011389D01*
X016265Y011332D02*
X016265Y011559D01*
X016378Y011559D02*
X016435Y011559D01*
X016378Y011559D02*
X016265Y011446D01*
X016572Y011503D02*
X016572Y011389D01*
X016628Y011332D01*
X016799Y011332D01*
X016799Y011276D02*
X016799Y011559D01*
X016628Y011559D01*
X016572Y011503D01*
X016685Y011219D02*
X016742Y011219D01*
X016799Y011276D01*
X015344Y011389D02*
X015344Y011503D01*
X015203Y011559D02*
X015032Y011559D01*
X014976Y011503D01*
X014664Y011446D02*
X014607Y011389D01*
X018350Y014752D02*
X018350Y015382D01*
X018350Y016122D02*
X018350Y016752D01*
X017016Y021532D02*
X017016Y021873D01*
X017186Y021873D01*
X017243Y021816D01*
X017243Y021703D01*
X017186Y021646D01*
X017016Y021646D01*
X016875Y021532D02*
X016875Y021873D01*
X016761Y021759D01*
X016648Y021873D01*
X016648Y021532D01*
X016506Y021532D02*
X016506Y021759D01*
X016393Y021873D01*
X016280Y021759D01*
X016280Y021532D01*
X016280Y021703D02*
X016506Y021703D01*
X015770Y021816D02*
X015713Y021873D01*
X015600Y021873D01*
X015543Y021816D01*
X015543Y021589D01*
X015600Y021532D01*
X015713Y021532D01*
X015770Y021589D01*
X015770Y021816D01*
X015411Y021873D02*
X015297Y021873D01*
X015354Y021873D02*
X015354Y021532D01*
X015297Y021532D02*
X015411Y021532D01*
X015156Y021589D02*
X015156Y021816D01*
X015099Y021873D01*
X014929Y021873D01*
X014929Y021532D01*
X015099Y021532D01*
X015156Y021589D01*
X014788Y021589D02*
X014788Y021873D01*
X014561Y021873D02*
X014561Y021589D01*
X014618Y021532D01*
X014731Y021532D01*
X014788Y021589D01*
X014419Y021532D02*
X014419Y021759D01*
X014306Y021873D01*
X014192Y021759D01*
X014192Y021532D01*
X014192Y021703D02*
X014419Y021703D01*
D13*
X009110Y015372D02*
X008930Y015372D01*
X008290Y015372D02*
X008090Y015372D01*
X011313Y012419D02*
X011313Y012326D01*
X011406Y012233D01*
X011593Y012233D01*
X011686Y012139D01*
X011686Y012046D01*
X011593Y011952D01*
X011406Y011952D01*
X011313Y012046D01*
X011313Y012419D02*
X011406Y012513D01*
X011593Y012513D01*
X011686Y012419D01*
X011920Y012513D02*
X011920Y011952D01*
X011920Y012139D02*
X012200Y012326D01*
X012427Y012326D02*
X012427Y012046D01*
X012520Y011952D01*
X012800Y011952D01*
X012800Y011859D02*
X012707Y011766D01*
X012613Y011766D01*
X012800Y011859D02*
X012800Y012326D01*
X013034Y012326D02*
X013315Y012326D01*
X013408Y012233D01*
X013408Y012046D01*
X013315Y011952D01*
X013034Y011952D01*
X013034Y011766D02*
X013034Y012326D01*
X013642Y012233D02*
X013736Y012326D01*
X013922Y012326D01*
X014016Y012233D01*
X014016Y012139D01*
X013642Y012139D01*
X013642Y012046D02*
X013642Y012233D01*
X013642Y012046D02*
X013736Y011952D01*
X013922Y011952D01*
X014250Y011952D02*
X014250Y012513D01*
X014530Y012513D01*
X014623Y012419D01*
X014623Y012233D01*
X014530Y012139D01*
X014250Y012139D01*
X014437Y012139D02*
X014623Y011952D01*
X014858Y012046D02*
X014951Y011952D01*
X015138Y011952D01*
X015231Y012046D01*
X015231Y012233D01*
X015138Y012326D01*
X014951Y012326D01*
X014858Y012233D01*
X014858Y012046D01*
X015465Y011952D02*
X015746Y011952D01*
X015839Y012046D01*
X015839Y012233D01*
X015746Y012326D01*
X015465Y012326D01*
X015465Y012513D02*
X015465Y011952D01*
X016073Y012046D02*
X016166Y011952D01*
X016353Y011952D01*
X016447Y012046D01*
X016447Y012233D01*
X016353Y012326D01*
X016166Y012326D01*
X016073Y012233D01*
X016073Y012046D01*
X016681Y012326D02*
X016868Y012326D01*
X016774Y012419D02*
X016774Y012046D01*
X016868Y011952D01*
X012200Y011952D02*
X011920Y012139D01*
D14*
X008808Y010747D02*
X008808Y010597D01*
X008758Y010597D02*
X008858Y010597D01*
X008758Y010697D02*
X008808Y010747D01*
X008710Y010722D02*
X008685Y010747D01*
X008635Y010747D01*
X008610Y010722D01*
X008610Y010622D01*
X008635Y010597D01*
X008685Y010597D01*
X008710Y010622D01*
X009023Y014021D02*
X008978Y014099D01*
X008979Y014099D02*
X009023Y014127D01*
X009065Y014158D01*
X009105Y014191D01*
X009143Y014227D01*
X009178Y014266D01*
X009210Y014307D01*
X009240Y014351D01*
X009266Y014396D01*
X009289Y014443D01*
X009309Y014491D01*
X009325Y014541D01*
X009338Y014591D01*
X009347Y014643D01*
X009353Y014695D01*
X009355Y014747D01*
X009444Y014748D01*
X009445Y014747D01*
X009443Y014692D01*
X009437Y014638D01*
X009428Y014583D01*
X009415Y014530D01*
X009399Y014478D01*
X009380Y014426D01*
X009357Y014376D01*
X009331Y014328D01*
X009302Y014281D01*
X009270Y014237D01*
X009235Y014194D01*
X009197Y014154D01*
X009157Y014117D01*
X009115Y014082D01*
X009070Y014050D01*
X009024Y014021D01*
X009019Y014029D01*
X009065Y014057D01*
X009109Y014089D01*
X009151Y014124D01*
X009191Y014161D01*
X009228Y014200D01*
X009263Y014242D01*
X009294Y014286D01*
X009323Y014332D01*
X009349Y014380D01*
X009371Y014430D01*
X009391Y014480D01*
X009407Y014532D01*
X009419Y014585D01*
X009428Y014639D01*
X009434Y014693D01*
X009436Y014747D01*
X009427Y014747D01*
X009425Y014693D01*
X009419Y014640D01*
X009410Y014587D01*
X009398Y014535D01*
X009382Y014483D01*
X009363Y014433D01*
X009341Y014384D01*
X009315Y014337D01*
X009287Y014291D01*
X009255Y014248D01*
X009221Y014206D01*
X009185Y014167D01*
X009145Y014130D01*
X009104Y014096D01*
X009060Y014065D01*
X009015Y014036D01*
X009010Y014044D01*
X009058Y014074D01*
X009104Y014108D01*
X009147Y014144D01*
X009188Y014184D01*
X009226Y014226D01*
X009261Y014270D01*
X009293Y014317D01*
X009321Y014366D01*
X009346Y014417D01*
X009368Y014470D01*
X009385Y014523D01*
X009399Y014578D01*
X009409Y014634D01*
X009416Y014690D01*
X009418Y014747D01*
X009409Y014747D01*
X009407Y014691D01*
X009401Y014635D01*
X009391Y014580D01*
X009377Y014526D01*
X009359Y014473D01*
X009338Y014421D01*
X009313Y014370D01*
X009285Y014322D01*
X009254Y014276D01*
X009219Y014231D01*
X009182Y014190D01*
X009141Y014151D01*
X009099Y014115D01*
X009053Y014082D01*
X009006Y014052D01*
X009001Y014060D01*
X009048Y014089D01*
X009093Y014122D01*
X009135Y014158D01*
X009175Y014196D01*
X009212Y014237D01*
X009247Y014281D01*
X009278Y014327D01*
X009305Y014375D01*
X009330Y014424D01*
X009351Y014476D01*
X009368Y014528D01*
X009382Y014582D01*
X009392Y014637D01*
X009398Y014692D01*
X009400Y014747D01*
X009391Y014747D01*
X009389Y014692D01*
X009383Y014638D01*
X009373Y014584D01*
X009359Y014531D01*
X009342Y014479D01*
X009322Y014428D01*
X009297Y014379D01*
X009270Y014332D01*
X009239Y014286D01*
X009206Y014243D01*
X009169Y014202D01*
X009129Y014164D01*
X009087Y014129D01*
X009043Y014097D01*
X008997Y014068D01*
X008992Y014076D01*
X009038Y014104D01*
X009082Y014136D01*
X009123Y014171D01*
X009162Y014209D01*
X009199Y014249D01*
X009232Y014291D01*
X009262Y014336D01*
X009290Y014383D01*
X009313Y014432D01*
X009334Y014482D01*
X009351Y014533D01*
X009364Y014586D01*
X009374Y014639D01*
X009380Y014693D01*
X009382Y014747D01*
X009373Y014747D01*
X009371Y014694D01*
X009365Y014640D01*
X009355Y014588D01*
X009342Y014536D01*
X009325Y014485D01*
X009305Y014435D01*
X009282Y014387D01*
X009255Y014341D01*
X009225Y014297D01*
X009192Y014255D01*
X009156Y014215D01*
X009117Y014178D01*
X009076Y014143D01*
X009033Y014112D01*
X008988Y014083D01*
X008983Y014091D01*
X009028Y014119D01*
X009071Y014150D01*
X009111Y014184D01*
X009149Y014221D01*
X009185Y014260D01*
X009217Y014302D01*
X009247Y014346D01*
X009274Y014392D01*
X009297Y014439D01*
X009317Y014488D01*
X009334Y014538D01*
X009347Y014590D01*
X009356Y014642D01*
X009362Y014694D01*
X009364Y014747D01*
X007756Y014747D02*
X007846Y014747D01*
X007845Y014747D02*
X007847Y014693D01*
X007853Y014640D01*
X007863Y014587D01*
X007877Y014535D01*
X007894Y014484D01*
X007915Y014435D01*
X007939Y014387D01*
X007967Y014341D01*
X007998Y014297D01*
X008032Y014255D01*
X008068Y014216D01*
X008108Y014179D01*
X008150Y014146D01*
X008194Y014115D01*
X008240Y014088D01*
X008198Y014009D01*
X008149Y014037D01*
X008103Y014069D01*
X008058Y014104D01*
X008016Y014141D01*
X007976Y014182D01*
X007940Y014225D01*
X007906Y014270D01*
X007875Y014317D01*
X007848Y014367D01*
X007824Y014418D01*
X007803Y014470D01*
X007786Y014524D01*
X007773Y014579D01*
X007763Y014634D01*
X007757Y014691D01*
X007755Y014747D01*
X007764Y014747D01*
X007766Y014691D01*
X007772Y014636D01*
X007782Y014581D01*
X007795Y014526D01*
X007812Y014473D01*
X007832Y014421D01*
X007856Y014371D01*
X007883Y014322D01*
X007913Y014275D01*
X007947Y014230D01*
X007983Y014188D01*
X008022Y014148D01*
X008064Y014111D01*
X008108Y014076D01*
X008154Y014045D01*
X008202Y014017D01*
X008206Y014025D01*
X008159Y014053D01*
X008113Y014084D01*
X008070Y014118D01*
X008028Y014154D01*
X007990Y014194D01*
X007954Y014236D01*
X007921Y014280D01*
X007891Y014326D01*
X007864Y014375D01*
X007841Y014425D01*
X007820Y014476D01*
X007804Y014529D01*
X007791Y014582D01*
X007781Y014637D01*
X007775Y014692D01*
X007773Y014747D01*
X007782Y014747D01*
X007784Y014692D01*
X007790Y014638D01*
X007799Y014584D01*
X007812Y014531D01*
X007829Y014479D01*
X007849Y014428D01*
X007872Y014379D01*
X007899Y014331D01*
X007928Y014285D01*
X007961Y014241D01*
X007996Y014200D01*
X008035Y014161D01*
X008075Y014124D01*
X008118Y014091D01*
X008164Y014060D01*
X008211Y014033D01*
X008215Y014041D01*
X008168Y014068D01*
X008124Y014098D01*
X008081Y014131D01*
X008041Y014167D01*
X008003Y014206D01*
X007968Y014247D01*
X007936Y014290D01*
X007906Y014336D01*
X007880Y014383D01*
X007857Y014432D01*
X007837Y014482D01*
X007821Y014534D01*
X007808Y014586D01*
X007799Y014639D01*
X007793Y014693D01*
X007791Y014747D01*
X007800Y014747D01*
X007802Y014694D01*
X007808Y014641D01*
X007817Y014588D01*
X007830Y014536D01*
X007846Y014485D01*
X007865Y014435D01*
X007888Y014387D01*
X007914Y014340D01*
X007943Y014296D01*
X007975Y014253D01*
X008010Y014212D01*
X008047Y014174D01*
X008087Y014138D01*
X008129Y014105D01*
X008173Y014075D01*
X008219Y014048D01*
X008223Y014056D01*
X008178Y014083D01*
X008134Y014113D01*
X008093Y014145D01*
X008053Y014180D01*
X008016Y014218D01*
X007982Y014258D01*
X007950Y014301D01*
X007922Y014345D01*
X007896Y014391D01*
X007874Y014439D01*
X007854Y014488D01*
X007838Y014538D01*
X007826Y014590D01*
X007817Y014642D01*
X007811Y014694D01*
X007809Y014747D01*
X007818Y014747D01*
X007820Y014691D01*
X007827Y014636D01*
X007837Y014581D01*
X007851Y014527D01*
X007869Y014475D01*
X007890Y014423D01*
X007916Y014374D01*
X007944Y014326D01*
X007976Y014280D01*
X008011Y014237D01*
X008049Y014197D01*
X008090Y014159D01*
X008134Y014124D01*
X008180Y014093D01*
X008228Y014064D01*
X008232Y014072D01*
X008184Y014100D01*
X008139Y014131D01*
X008096Y014166D01*
X008056Y014203D01*
X008018Y014243D01*
X007983Y014286D01*
X007952Y014331D01*
X007923Y014378D01*
X007899Y014427D01*
X007877Y014478D01*
X007860Y014530D01*
X007846Y014583D01*
X007836Y014637D01*
X007829Y014692D01*
X007827Y014747D01*
X007836Y014747D01*
X007838Y014693D01*
X007844Y014639D01*
X007854Y014585D01*
X007868Y014533D01*
X007886Y014481D01*
X007907Y014431D01*
X007931Y014382D01*
X007959Y014336D01*
X007991Y014291D01*
X008025Y014249D01*
X008062Y014210D01*
X008102Y014173D01*
X008144Y014139D01*
X008189Y014108D01*
X008236Y014080D01*
X008056Y015397D02*
X008113Y015328D01*
X008113Y015329D02*
X008073Y015292D01*
X008035Y015253D01*
X008001Y015211D01*
X007969Y015167D01*
X007941Y015121D01*
X007916Y015072D01*
X007895Y015022D01*
X007877Y014971D01*
X007864Y014918D01*
X007854Y014865D01*
X007847Y014811D01*
X007845Y014757D01*
X007756Y014756D01*
X007755Y014757D01*
X007757Y014813D01*
X007763Y014869D01*
X007773Y014924D01*
X007786Y014979D01*
X007803Y015032D01*
X007823Y015085D01*
X007847Y015136D01*
X007874Y015185D01*
X007905Y015232D01*
X007938Y015277D01*
X007974Y015320D01*
X008013Y015360D01*
X008055Y015398D01*
X008061Y015391D01*
X008020Y015354D01*
X007981Y015314D01*
X007945Y015272D01*
X007912Y015227D01*
X007882Y015180D01*
X007855Y015132D01*
X007832Y015081D01*
X007811Y015029D01*
X007795Y014976D01*
X007782Y014922D01*
X007772Y014868D01*
X007766Y014813D01*
X007764Y014757D01*
X007773Y014757D01*
X007775Y014812D01*
X007781Y014867D01*
X007790Y014921D01*
X007803Y014974D01*
X007820Y015026D01*
X007840Y015078D01*
X007863Y015127D01*
X007890Y015176D01*
X007919Y015222D01*
X007952Y015266D01*
X007988Y015308D01*
X008026Y015347D01*
X008067Y015384D01*
X008072Y015377D01*
X008032Y015341D01*
X007994Y015302D01*
X007959Y015260D01*
X007927Y015217D01*
X007897Y015171D01*
X007871Y015123D01*
X007848Y015074D01*
X007828Y015024D01*
X007812Y014972D01*
X007799Y014919D01*
X007790Y014865D01*
X007784Y014811D01*
X007782Y014757D01*
X007791Y014757D01*
X007793Y014811D01*
X007799Y014864D01*
X007808Y014917D01*
X007821Y014969D01*
X007837Y015021D01*
X007856Y015071D01*
X007879Y015119D01*
X007905Y015166D01*
X007934Y015212D01*
X007966Y015255D01*
X008001Y015296D01*
X008038Y015334D01*
X008078Y015370D01*
X008084Y015363D01*
X008045Y015328D01*
X008008Y015290D01*
X007973Y015249D01*
X007942Y015206D01*
X007913Y015162D01*
X007887Y015115D01*
X007865Y015067D01*
X007845Y015018D01*
X007829Y014967D01*
X007817Y014915D01*
X007808Y014863D01*
X007802Y014810D01*
X007800Y014757D01*
X007809Y014757D01*
X007811Y014809D01*
X007817Y014862D01*
X007826Y014913D01*
X007838Y014964D01*
X007854Y015015D01*
X007873Y015064D01*
X007895Y015111D01*
X007921Y015157D01*
X007949Y015201D01*
X007980Y015243D01*
X008014Y015284D01*
X008051Y015321D01*
X008090Y015356D01*
X008096Y015350D01*
X008057Y015315D01*
X008021Y015277D01*
X007987Y015238D01*
X007956Y015196D01*
X007928Y015152D01*
X007903Y015107D01*
X007881Y015060D01*
X007862Y015012D01*
X007847Y014962D01*
X007834Y014912D01*
X007826Y014860D01*
X007820Y014809D01*
X007818Y014757D01*
X007827Y014757D01*
X007829Y014808D01*
X007834Y014859D01*
X007843Y014910D01*
X007855Y014960D01*
X007871Y015009D01*
X007889Y015056D01*
X007911Y015103D01*
X007936Y015148D01*
X007964Y015191D01*
X007994Y015232D01*
X008027Y015271D01*
X008063Y015308D01*
X008101Y015343D01*
X008107Y015336D01*
X008066Y015299D01*
X008028Y015259D01*
X007994Y015217D01*
X007962Y015172D01*
X007933Y015125D01*
X007908Y015076D01*
X007887Y015025D01*
X007869Y014974D01*
X007855Y014920D01*
X007845Y014866D01*
X007838Y014812D01*
X007836Y014757D01*
X009444Y014756D02*
X009354Y014756D01*
X009355Y014757D02*
X009353Y014811D01*
X009347Y014864D01*
X009337Y014917D01*
X009323Y014969D01*
X009306Y015020D01*
X009285Y015070D01*
X009261Y015118D01*
X009233Y015164D01*
X009202Y015208D01*
X009168Y015249D01*
X009131Y015289D01*
X009092Y015325D01*
X009149Y015393D01*
X009150Y015394D01*
X009191Y015356D01*
X009229Y015316D01*
X009265Y015273D01*
X009298Y015228D01*
X009328Y015181D01*
X009354Y015133D01*
X009378Y015082D01*
X009398Y015030D01*
X009414Y014977D01*
X009428Y014923D01*
X009437Y014868D01*
X009443Y014813D01*
X009445Y014757D01*
X009436Y014757D01*
X009434Y014812D01*
X009428Y014867D01*
X009419Y014921D01*
X009406Y014975D01*
X009389Y015027D01*
X009370Y015079D01*
X009346Y015129D01*
X009320Y015177D01*
X009290Y015223D01*
X009258Y015268D01*
X009223Y015310D01*
X009184Y015350D01*
X009144Y015387D01*
X009138Y015380D01*
X009178Y015343D01*
X009216Y015304D01*
X009251Y015262D01*
X009283Y015218D01*
X009312Y015172D01*
X009338Y015124D01*
X009361Y015075D01*
X009381Y015024D01*
X009397Y014972D01*
X009410Y014919D01*
X009419Y014866D01*
X009425Y014811D01*
X009427Y014757D01*
X009418Y014757D01*
X009416Y014811D01*
X009410Y014864D01*
X009401Y014917D01*
X009388Y014970D01*
X009372Y015021D01*
X009353Y015072D01*
X009330Y015120D01*
X009305Y015168D01*
X009276Y015213D01*
X009244Y015257D01*
X009209Y015298D01*
X009172Y015337D01*
X009132Y015373D01*
X009126Y015366D01*
X009166Y015330D01*
X009203Y015292D01*
X009237Y015251D01*
X009268Y015208D01*
X009297Y015163D01*
X009322Y015116D01*
X009345Y015068D01*
X009364Y015018D01*
X009380Y014967D01*
X009392Y014916D01*
X009401Y014863D01*
X009407Y014810D01*
X009409Y014757D01*
X009400Y014757D01*
X009398Y014810D01*
X009392Y014862D01*
X009383Y014914D01*
X009371Y014965D01*
X009355Y015015D01*
X009336Y015065D01*
X009314Y015112D01*
X009289Y015159D01*
X009261Y015203D01*
X009230Y015245D01*
X009196Y015286D01*
X009159Y015324D01*
X009121Y015359D01*
X009115Y015353D01*
X009153Y015317D01*
X009189Y015280D01*
X009223Y015240D01*
X009253Y015198D01*
X009281Y015154D01*
X009306Y015108D01*
X009328Y015061D01*
X009347Y015012D01*
X009362Y014963D01*
X009375Y014912D01*
X009383Y014861D01*
X009389Y014809D01*
X009391Y014757D01*
X009382Y014757D01*
X009380Y014813D01*
X009373Y014868D01*
X009363Y014923D01*
X009349Y014977D01*
X009331Y015030D01*
X009309Y015081D01*
X009284Y015131D01*
X009255Y015179D01*
X009223Y015224D01*
X009188Y015267D01*
X009150Y015308D01*
X009109Y015346D01*
X009103Y015339D01*
X009144Y015302D01*
X009181Y015261D01*
X009216Y015219D01*
X009248Y015174D01*
X009276Y015126D01*
X009301Y015077D01*
X009323Y015026D01*
X009340Y014974D01*
X009354Y014921D01*
X009364Y014867D01*
X009371Y014812D01*
X009373Y014757D01*
X009364Y014757D01*
X009362Y014811D01*
X009356Y014865D01*
X009346Y014919D01*
X009332Y014972D01*
X009314Y015023D01*
X009293Y015073D01*
X009268Y015122D01*
X009240Y015169D01*
X009209Y015213D01*
X009175Y015255D01*
X009137Y015295D01*
X009097Y015332D01*
X010310Y016097D02*
X010310Y016247D01*
X010385Y016247D01*
X010410Y016222D01*
X010410Y016172D01*
X010385Y016147D01*
X010310Y016147D01*
X010360Y016147D02*
X010410Y016097D01*
X010458Y016097D02*
X010558Y016097D01*
X010508Y016097D02*
X010508Y016247D01*
X010458Y016197D01*
X013105Y016185D02*
X013105Y016135D01*
X013130Y016110D01*
X013130Y016063D02*
X013180Y016063D01*
X013205Y016038D01*
X013205Y015963D01*
X013205Y016013D02*
X013255Y016063D01*
X013255Y016110D02*
X013155Y016210D01*
X013130Y016210D01*
X013105Y016185D01*
X013130Y016063D02*
X013105Y016038D01*
X013105Y015963D01*
X013255Y015963D01*
X013255Y016110D02*
X013255Y016210D01*
X019680Y012210D02*
X019705Y012210D01*
X019755Y012160D01*
X019830Y012160D01*
X019755Y012160D02*
X019705Y012110D01*
X019680Y012110D01*
X019705Y012063D02*
X019755Y012063D01*
X019780Y012038D01*
X019780Y011963D01*
X019780Y012013D02*
X019830Y012063D01*
X019830Y011963D02*
X019680Y011963D01*
X019680Y012038D01*
X019705Y012063D01*
X019680Y011915D02*
X019680Y011815D01*
X019830Y011815D01*
X019830Y011915D01*
X019755Y011865D02*
X019755Y011815D01*
X019680Y011768D02*
X019680Y011668D01*
X019680Y011621D02*
X019680Y011521D01*
X019680Y011571D02*
X019830Y011571D01*
X019830Y011473D02*
X019730Y011473D01*
X019680Y011423D01*
X019730Y011373D01*
X019830Y011373D01*
X019805Y011326D02*
X019830Y011301D01*
X019830Y011226D01*
X019680Y011226D01*
X019680Y011301D01*
X019705Y011326D01*
X019730Y011326D01*
X019755Y011301D01*
X019755Y011226D01*
X019755Y011301D02*
X019780Y011326D01*
X019805Y011326D01*
X019755Y011373D02*
X019755Y011473D01*
X019830Y011718D02*
X019680Y011718D01*
D15*
X019900Y016857D02*
X019825Y016932D01*
X019825Y017082D01*
X019900Y017157D01*
X020200Y017157D01*
X020275Y017082D01*
X020275Y016932D01*
X020200Y016857D01*
X019900Y016857D01*
X020125Y017007D02*
X020275Y017157D01*
X020275Y017317D02*
X020275Y017617D01*
X020275Y017467D02*
X019825Y017467D01*
X019975Y017317D01*
X008425Y017209D02*
X008425Y016909D01*
X008425Y017059D02*
X007975Y017059D01*
X008125Y016909D01*
X008050Y016748D02*
X008350Y016748D01*
X008425Y016673D01*
X008425Y016448D01*
X007975Y016448D01*
X007975Y016673D01*
X008050Y016748D01*
X007975Y016288D02*
X007975Y015988D01*
X008425Y015988D01*
X008425Y016288D01*
X008200Y016138D02*
X008200Y015988D01*
X008425Y015828D02*
X008425Y015527D01*
X007975Y015527D01*
X007908Y017927D02*
X007908Y018228D01*
X007758Y018378D01*
X007608Y018228D01*
X007608Y017927D01*
X007448Y018002D02*
X007373Y017927D01*
X007223Y017927D01*
X007148Y018002D01*
X007148Y018153D01*
X007373Y018153D01*
X007448Y018077D01*
X007448Y018002D01*
X007608Y018153D02*
X007908Y018153D01*
X008069Y018077D02*
X008294Y018077D01*
X008369Y018153D01*
X008369Y018303D01*
X008294Y018378D01*
X008069Y018378D01*
X008069Y017927D01*
X007448Y018378D02*
X007298Y018303D01*
X007148Y018153D01*
X006988Y018228D02*
X006913Y018153D01*
X006988Y018077D01*
X006988Y018002D01*
X006913Y017927D01*
X006762Y017927D01*
X006687Y018002D01*
X006837Y018153D02*
X006913Y018153D01*
X006988Y018228D02*
X006988Y018303D01*
X006913Y018378D01*
X006762Y018378D01*
X006687Y018303D01*
X006527Y018153D02*
X006227Y018153D01*
X006452Y018378D01*
X006452Y017927D01*
X006067Y018002D02*
X005992Y017927D01*
X005842Y017927D01*
X005767Y018002D01*
X005767Y018153D02*
X005917Y018228D01*
X005992Y018228D01*
X006067Y018153D01*
X006067Y018002D01*
X005767Y018153D02*
X005767Y018378D01*
X006067Y018378D01*
X005606Y018153D02*
X005306Y018153D01*
X005531Y018378D01*
X005531Y017927D01*
X005146Y017927D02*
X004846Y017927D01*
X004996Y017927D02*
X004996Y018378D01*
X004846Y018228D01*
X004686Y018303D02*
X004611Y018378D01*
X004460Y018378D01*
X004385Y018303D01*
X004385Y018002D01*
X004460Y017927D01*
X004611Y017927D01*
X004686Y018002D01*
X004225Y017927D02*
X004225Y018378D01*
X004075Y018228D01*
X003925Y018378D01*
X003925Y017927D01*
X006600Y027252D02*
X007100Y027252D01*
X007100Y027752D01*
X008100Y027752D01*
X008100Y027252D01*
X007100Y027252D01*
X006600Y027252D02*
X006600Y029452D01*
X008600Y029452D01*
X008600Y027252D01*
X008100Y027252D01*
X009100Y027252D02*
X009600Y027252D01*
X009600Y027752D01*
X010600Y027752D01*
X010600Y027252D01*
X009600Y027252D01*
X009100Y027252D02*
X009100Y029452D01*
X011100Y029452D01*
X011100Y027252D01*
X010600Y027252D01*
X011600Y027252D02*
X012100Y027252D01*
X012100Y027752D01*
X013100Y027752D01*
X013100Y027252D01*
X012100Y027252D01*
X011600Y027252D02*
X011600Y029452D01*
X013600Y029452D01*
X013600Y027252D01*
X013100Y027252D01*
D16*
X014350Y017902D02*
X014350Y017752D01*
X014350Y013752D01*
X014350Y013602D01*
D17*
X017100Y013952D02*
X017100Y017552D01*
D18*
X017850Y016122D02*
X018350Y016122D01*
X018850Y016122D01*
X018850Y015882D02*
X018850Y015632D01*
X017850Y015632D01*
X017850Y015882D01*
X018850Y015882D01*
X018850Y015382D02*
X018350Y015382D01*
X017850Y015382D01*
D19*
X015808Y028972D02*
X015578Y029203D01*
X015501Y029126D02*
X015808Y029433D01*
X015501Y029433D02*
X015501Y028972D01*
X015348Y029049D02*
X015271Y028972D01*
X015118Y028972D01*
X015041Y029049D01*
X015041Y029356D01*
X015118Y029433D01*
X015271Y029433D01*
X015348Y029356D01*
X014887Y029279D02*
X014887Y028972D01*
X014887Y029203D02*
X014580Y029203D01*
X014580Y029279D02*
X014734Y029433D01*
X014887Y029279D01*
X014580Y029279D02*
X014580Y028972D01*
X014350Y029049D02*
X014350Y029433D01*
X014273Y029433D02*
X014427Y029433D01*
X014350Y029049D02*
X014273Y028972D01*
X014197Y028972D01*
X014120Y029049D01*
M02*
